<?xml version="1.0" encoding="UTF-8"?>
<svg xmlns="http://www.w3.org/2000/svg" version="1.1" xmlns:xlink="http://www.w3.org/1999/xlink" viewBox="0 0 1600 400">
  <defs>
    <style>
      .cls-1 {
        stroke: url(#_未命名的渐变_2);
        stroke-width: 60px;
      }

      .cls-1, .cls-2 {
        fill: none;
        stroke-linecap: round;
        stroke-linejoin: round;
      }

      .cls-2 {
        stroke: url(#_未命名的渐变);
        stroke-width: 50px;
      }
    </style>
    <linearGradient id="_未命名的渐变" data-name="未命名的渐变" x1="319.4" y1="435.9" x2="65.8" y2="182.3" gradientTransform="translate(0 -109)" gradientUnits="userSpaceOnUse">
      <stop offset="0" stop-color="#3cba92"/>
      <stop offset=".3" stop-color="#32b588"/>
      <stop offset=".8" stop-color="#0ba360"/>
    </linearGradient>
    <linearGradient id="_未命名的渐变_2" data-name="未命名的渐变 2" x1="294.1" y1="398.4" x2="143" y2="247.4" gradientTransform="translate(0 -109)" gradientUnits="userSpaceOnUse">
      <stop offset=".2" stop-color="#23bd7c"/>
      <stop offset=".7" stop-color="#23bd7c"/>
      <stop offset="1" stop-color="#0ba45e"/>
    </linearGradient>
  </defs>
  <!-- Generator: Adobe Illustrator 28.6.0, SVG Export Plug-In . SVG Version: 1.2.0 Build 709)  -->
  <g>
    <g id="_图层_1" data-name="图层_1">
      <g id="_图层_1-2" data-name="_图层_1">
        <path class="cls-2" d="M284.5,118.6v-44.9h-155.9c-9.5,0-82.2,20.2-82.2,89.9v38.1-3.2,38.1c0,69.7,72.7,89.9,82.2,89.9h155.9v-44.9"/>
        <polyline class="cls-1" points="327.2 213.9 296 213.9 109.9 213.9 160 163.8"/>
      </g>
      <g>
        <path d="M388.3,274.9l47.4-148.2h35l47.4,148.2h-31.2l-21-77.2c-2.3-7.7-4.4-15.8-6.5-24.1-2.1-8.3-4.2-16.4-6.5-24.3h-.8c-1.9,8-3.9,16.1-6.1,24.4-2.2,8.3-4.4,16.3-6.5,24l-21.2,77.2h-30ZM417.7,236.9v-23h70.4v23h-70.4Z"/>
        <path d="M564.9,277.7c-12.1,0-20.9-4-26.4-11.9-5.5-7.9-8.2-19-8.2-33.1v-69.8h29.2v66.2c0,8.7,1.3,14.7,3.8,18.2,2.5,3.5,6.6,5.2,12.2,5.2s8.5-1.1,11.9-3.3c3.4-2.2,7-5.8,10.7-10.7v-75.6h29.4v112h-24l-2.2-16.2h-.8c-4.8,5.7-10,10.3-15.6,13.8-5.6,3.5-12.3,5.2-20,5.2Z"/>
        <path d="M699.9,277.7c-8.8,0-15.9-1.8-21.4-5.3-5.5-3.5-9.4-8.4-11.8-14.7-2.4-6.3-3.6-13.5-3.6-21.8v-49.8h-15.8v-21.8l17.4-1.4,3.4-30.2h24.2v30.2h27.8v23.2h-27.8v49.6c0,6.4,1.3,11.1,4,14.2,2.7,3.1,6.5,4.6,11.4,4.6s3.8-.3,5.8-.8c2-.5,3.7-1.1,5.2-1.6l5,21.4c-3.1.9-6.6,1.9-10.5,2.8-3.9.9-8.4,1.4-13.3,1.4Z"/>
        <path d="M743.1,274.9V115.3h29.4v40.2l-1.4,21c4.4-4.3,9.5-8.1,15.2-11.4,5.7-3.3,12.4-5,20-5,12.1,0,20.9,4,26.4,11.9,5.5,7.9,8.2,19,8.2,33.1v69.8h-29.4v-66.2c0-8.7-1.2-14.7-3.7-18.2-2.5-3.5-6.5-5.2-12.1-5.2s-8.5,1.1-11.9,3.2c-3.4,2.1-7.2,5.3-11.3,9.4v77h-29.4Z"/>
        <path d="M979.1,277.7c-9.3,0-18.1-1.6-26.2-4.9-8.1-3.3-15.3-8.2-21.5-14.7-6.2-6.5-11.1-14.5-14.6-24-3.5-9.5-5.3-20.3-5.3-32.6s1.8-23.2,5.4-32.7c3.6-9.5,8.6-17.6,14.9-24.3,6.3-6.7,13.7-11.7,22-15.2,8.3-3.5,17.2-5.2,26.5-5.2s17.9,1.9,25.3,5.7c7.4,3.8,13.4,8.2,18.1,13.3l-15.4,18.8c-3.7-3.7-7.8-6.7-12.3-9-4.5-2.3-9.5-3.4-15.1-3.4s-14.2,2-20.1,6.1c-5.9,4.1-10.6,9.9-13.9,17.5-3.3,7.6-5,16.7-5,27.4s1.6,20,4.7,27.7c3.1,7.7,7.6,13.6,13.4,17.7,5.8,4.1,12.6,6.2,20.3,6.2s12.1-1.4,17.1-4.1c5-2.7,9.4-6.2,13.3-10.5l15.8,18.4c-6.1,7.2-13.1,12.6-21,16.3-7.9,3.7-16.7,5.5-26.4,5.5Z"/>
        <path d="M1096.5,277.7c-10.4,0-19.8-2.3-28.2-7-8.4-4.7-15.1-11.4-20.1-20.2s-7.5-19.3-7.5-31.6,1.4-17.2,4.3-24.4c2.9-7.2,6.8-13.4,11.8-18.5,5-5.1,10.6-9.1,16.8-11.8,6.2-2.7,12.6-4.1,19.3-4.1,10.3,0,18.9,2.3,25.8,6.9,6.9,4.6,12.2,10.9,15.7,19,3.5,8.1,5.3,17.3,5.3,27.7s-.1,5.2-.4,7.7c-.3,2.5-.6,4.4-1,5.9h-69c.8,6,2.6,11.1,5.4,15.2,2.8,4.1,6.4,7.2,10.8,9.3,4.4,2.1,9.4,3.1,15,3.1s8.8-.6,12.8-1.9c4-1.3,8.1-3.2,12.2-5.7l10,18c-5.5,3.7-11.6,6.7-18.4,9s-13.7,3.4-20.6,3.4ZM1068.7,207.5h45.8c0-7.5-1.7-13.4-5.1-17.9-3.4-4.5-8.8-6.7-16.1-6.7s-7.5.9-11,2.7c-3.5,1.8-6.4,4.5-8.8,8.2-2.4,3.7-4,8.2-4.8,13.7Z"/>
        <path d="M1163.9,274.9v-112h24l2.2,14.8h.6c4.9-4.8,10.3-8.9,16.2-12.4,5.9-3.5,12.6-5.2,20.2-5.2,12.1,0,20.9,4,26.4,11.9,5.5,7.9,8.2,19,8.2,33.1v69.8h-29.4v-66.2c0-8.7-1.2-14.7-3.7-18.2-2.5-3.5-6.5-5.2-12.1-5.2s-8.5,1.1-11.9,3.2c-3.4,2.1-7.2,5.3-11.3,9.4v77h-29.4Z"/>
        <path d="M1333.1,277.7c-8.8,0-15.9-1.8-21.4-5.3-5.5-3.5-9.4-8.4-11.8-14.7-2.4-6.3-3.6-13.5-3.6-21.8v-49.8h-15.8v-21.8l17.4-1.4,3.4-30.2h24.2v30.2h27.8v23.2h-27.8v49.6c0,6.4,1.3,11.1,4,14.2,2.7,3.1,6.5,4.6,11.4,4.6s3.8-.3,5.8-.8c2-.5,3.7-1.1,5.2-1.6l5,21.4c-3.1.9-6.6,1.9-10.5,2.8-3.9.9-8.4,1.4-13.3,1.4Z"/>
        <path d="M1420.1,277.7c-10.4,0-19.8-2.3-28.2-7-8.4-4.7-15.1-11.4-20.1-20.2s-7.5-19.3-7.5-31.6,1.4-17.2,4.3-24.4c2.9-7.2,6.8-13.4,11.8-18.5,5-5.1,10.6-9.1,16.8-11.8,6.2-2.7,12.6-4.1,19.3-4.1,10.3,0,18.9,2.3,25.8,6.9,6.9,4.6,12.2,10.9,15.7,19,3.5,8.1,5.3,17.3,5.3,27.7s-.1,5.2-.4,7.7c-.3,2.5-.6,4.4-1,5.9h-69c.8,6,2.6,11.1,5.4,15.2,2.8,4.1,6.4,7.2,10.8,9.3,4.4,2.1,9.4,3.1,15,3.1s8.8-.6,12.8-1.9c4-1.3,8.1-3.2,12.2-5.7l10,18c-5.5,3.7-11.6,6.7-18.4,9s-13.7,3.4-20.6,3.4ZM1392.3,207.5h45.8c0-7.5-1.7-13.4-5.1-17.9-3.4-4.5-8.8-6.7-16.1-6.7s-7.5.9-11,2.7c-3.5,1.8-6.4,4.5-8.8,8.2-2.4,3.7-4,8.2-4.8,13.7Z"/>
        <path d="M1487.5,274.9v-112h24l2.2,19.8h.6c4.1-7.3,9-12.9,14.6-16.8,5.6-3.9,11.3-5.8,17.2-5.8s5.8.2,7.7.7c1.9.5,3.7,1,5.3,1.7l-4.8,25.4c-2.1-.5-4-1-5.7-1.3-1.7-.3-3.8-.5-6.3-.5-4.3,0-8.8,1.7-13.5,5-4.7,3.3-8.7,9-11.9,17v66.8h-29.4Z"/>
      </g>
    </g>
  </g>
</svg>